<svg xmlns="http://www.w3.org/2000/svg" style="display:none;">
    <symbol id="icon-email" viewBox="0 0 24 24">
        <path d="M3 3H21C21.2652 3 21.5196 3.10536 21.7071 3.29289C21.8946 3.48043 22 3.73478 22 4V20C22 20.2652 21.8946 20.5196 21.7071 20.7071C21.5196 20.8946 21.2652 21 21 21H3C2.73478 21 2.48043 20.8946 2.29289 20.7071C2.10536 20.5196 2 20.2652 2 20V4C2 3.73478 2.10536 3.48043 2.29289 3.29289C2.48043 3.10536 2.73478 3 3 3ZM12.06 11.683L5.648 6.238L4.353 7.762L12.073 14.317L19.654 7.757L18.346 6.244L12.061 11.683H12.06Z" fill="currentColor"/>
    </symbol>

    <symbol id="icon-phone" viewBox="0 0 24 24">
        <g clip-path="url(#clip0_7_6)">
            <path d="M21 16.42V19.956C21.0001 20.2092 20.9042 20.453 20.7316 20.6382C20.559 20.8234 20.3226 20.9363 20.07 20.954C19.633 20.984 19.276 21 19 21C10.163 21 3 13.837 3 5C3 4.724 3.015 4.367 3.046 3.93C3.06372 3.67744 3.17658 3.44101 3.3618 3.26841C3.54703 3.09581 3.79082 2.99989 4.044 3H7.58C7.70404 2.99987 7.8237 3.04586 7.91573 3.12902C8.00776 3.21218 8.0656 3.32658 8.078 3.45C8.101 3.68 8.122 3.863 8.142 4.002C8.34073 5.38892 8.748 6.73783 9.35 8.003C9.445 8.203 9.383 8.442 9.203 8.57L7.045 10.112C8.36445 13.1865 10.8145 15.6365 13.889 16.956L15.429 14.802C15.4919 14.714 15.5838 14.6509 15.6885 14.6237C15.7932 14.5964 15.9042 14.6068 16.002 14.653C17.267 15.2539 18.6156 15.6601 20.002 15.858C20.141 15.878 20.324 15.9 20.552 15.922C20.6752 15.9346 20.7894 15.9926 20.8724 16.0846C20.9553 16.1766 21.0012 16.2961 21.001 16.42H21Z" fill="currentColor"/>
        </g>
        <defs>
            <clipPath id="clip0_7_6">
                <rect width="24" height="24" fill="white"/>
            </clipPath>
        </defs>
    </symbol>

    <symbol id="icon-fb" viewBox="0 0 24 24">
        <g clip-path="url(#clip0_7_5)">
            <path d="M14 13.5H16.5L17.5 9.5H14V7.5C14 6.47 14 5.5 16 5.5H17.5V2.14C17.174 2.097 15.943 2 14.643 2C11.928 2 10 3.657 10 6.7V9.5H7V13.5H10V22H14V13.5Z" fill="currentColor"/>
        </g>
        <defs>
            <clipPath id="clip0_7_5">
                <rect width="24" height="24" fill="white"/>
            </clipPath>
        </defs>
    </symbol>

    <symbol id="icon-instagram" viewBox="0 0 24 24">
        <g clip-path="url(#clip0_7_4)">
            <path d="M12 2C14.717 2 15.056 2.01 16.122 2.06C17.187 2.11 17.912 2.277 18.55 2.525C19.21 2.779 19.766 3.123 20.322 3.678C20.8305 4.1779 21.224 4.78259 21.475 5.45C21.722 6.087 21.89 6.813 21.94 7.878C21.987 8.944 22 9.283 22 12C22 14.717 21.99 15.056 21.94 16.122C21.89 17.187 21.722 17.912 21.475 18.55C21.2247 19.2178 20.8311 19.8226 20.322 20.322C19.822 20.8303 19.2173 21.2238 18.55 21.475C17.913 21.722 17.187 21.89 16.122 21.94C15.056 21.987 14.717 22 12 22C9.283 22 8.944 21.99 7.878 21.94C6.813 21.89 6.088 21.722 5.45 21.475C4.78233 21.2245 4.17753 20.8309 3.678 20.322C3.16941 19.8222 2.77593 19.2175 2.525 18.55C2.277 17.913 2.11 17.187 2.06 16.122C2.013 15.056 2 14.717 2 12C2 9.283 2.01 8.944 2.06 7.878C2.11 6.812 2.277 6.088 2.525 5.45C2.77524 4.78218 3.1688 4.17732 3.678 3.678C4.17767 3.16923 4.78243 2.77573 5.45 2.525C6.088 2.277 6.812 2.11 7.878 2.06C8.944 2.013 9.283 2 12 2ZM12 7C10.6739 7 9.40215 7.52678 8.46447 8.46447C7.52678 9.40215 7 10.6739 7 12C7 13.3261 7.52678 14.5979 8.46447 15.5355C9.40215 16.4732 10.6739 17 12 17C13.3261 17 14.5979 16.4732 15.5355 15.5355C16.4732 14.5979 17 13.3261 17 12C17 10.6739 16.4732 9.40215 15.5355 8.46447C14.5979 7.52678 13.3261 7 12 7ZM18.5 6.75C18.5 6.41848 18.3683 6.10054 18.1339 5.86612C17.8995 5.6317 17.5815 5.5 17.25 5.5C16.9185 5.5 16.6005 5.6317 16.3661 5.86612C16.1317 6.10054 16 6.41848 16 6.75C16 7.08152 16.1317 7.39946 16.3661 7.63388C16.6005 7.8683 16.9185 8 17.25 8C17.5815 8 17.8995 7.8683 18.1339 7.63388C18.3683 7.39946 18.5 7.08152 18.5 6.75ZM12 9C12.7956 9 13.5587 9.31607 14.1213 9.87868C14.6839 10.4413 15 11.2044 15 12C15 12.7956 14.6839 13.5587 14.1213 14.1213C13.5587 14.6839 12.7956 15 12 15C11.2044 15 10.4413 14.6839 9.87868 14.1213C9.31607 13.5587 9 12.7956 9 12C9 11.2044 9.31607 10.4413 9.87868 9.87868C10.4413 9.31607 11.2044 9 12 9Z" fill="currentColor"/>
        </g>
        <defs>
            <clipPath id="clip0_7_4">
                <rect width="24" height="24" fill="white"/>
            </clipPath>
        </defs>
    </symbol>

    <symbol id="icon-twitter" viewBox="0 0 24 24">
        <g clip-path="url(#clip0_7_3)">
            <path d="M22.1621 5.65599C21.3986 5.99368 20.589 6.21546 19.7601 6.31399C20.6338 5.79142 21.2878 4.969 21.6001 3.99999C20.7801 4.48799 19.8811 4.82999 18.9441 5.01499C18.3147 4.34157 17.4804 3.89495 16.571 3.74457C15.6616 3.59419 14.728 3.74848 13.9153 4.18344C13.1026 4.6184 12.4564 5.30967 12.0772 6.14978C11.6979 6.98989 11.6068 7.93177 11.8181 8.82899C10.1552 8.74564 8.52838 8.31351 7.04334 7.56065C5.55829 6.80779 4.24818 5.75104 3.19805 4.45899C2.82634 5.09744 2.63101 5.82321 2.63205 6.56199C2.63205 8.01199 3.37005 9.29299 4.49205 10.043C3.82806 10.0221 3.17869 9.84277 2.59805 9.51999V9.57199C2.59825 10.5377 2.93242 11.4736 3.5439 12.221C4.15538 12.9685 5.00653 13.4815 5.95305 13.673C5.33667 13.84 4.69036 13.8646 4.06305 13.745C4.32992 14.5762 4.85006 15.3032 5.55064 15.8241C6.25123 16.345 7.09718 16.6338 7.97005 16.65C7.10253 17.3313 6.10923 17.835 5.04693 18.1322C3.98464 18.4293 2.87418 18.5142 1.77905 18.382C3.69075 19.6114 5.91615 20.2641 8.18905 20.262C15.8821 20.262 20.0891 13.889 20.0891 8.36199C20.0891 8.18199 20.0841 7.99999 20.0761 7.82199C20.8949 7.23016 21.6017 6.49701 22.1631 5.65699L22.1621 5.65599Z" fill="currentColor"/>
        </g>
        <defs>
            <clipPath id="clip0_7_3">
                <rect width="24" height="24" fill="white"/>
            </clipPath>
        </defs>
    </symbol>

    <symbol id="icon-youtube" viewBox="0 0 24 24">
        <g clip-path="url(#clip0_7_2)">
            <path d="M21.543 6.498C22 8.28 22 12 22 12C22 12 22 15.72 21.543 17.502C21.289 18.487 20.546 19.262 19.605 19.524C17.896 20 12 20 12 20C12 20 6.107 20 4.395 19.524C3.45 19.258 2.708 18.484 2.457 17.502C2 15.72 2 12 2 12C2 12 2 8.28 2.457 6.498C2.711 5.513 3.454 4.738 4.395 4.476C6.107 4 12 4 12 4C12 4 17.896 4 19.605 4.476C20.55 4.742 21.292 5.516 21.543 6.498ZM10 15.5L16 12L10 8.5V15.5Z" fill="currentColor"/>
        </g>
        <defs>
            <clipPath id="clip0_7_2">
                <rect width="24" height="24" fill="white"/>
            </clipPath>
        </defs>
    </symbol>

    <symbol id="icon-send" viewBox="0 0 20 22">
        <path d="M0 12H6V10H0V0.845999C1.48755e-05 0.759114 0.0226703 0.673732 0.0657334 0.598269C0.108797 0.522806 0.170781 0.459867 0.245577 0.415656C0.320372 0.371445 0.405398 0.347487 0.492273 0.346144C0.579148 0.344802 0.664873 0.36612 0.741 0.407999L19.203 10.562C19.2814 10.6052 19.3468 10.6686 19.3923 10.7456C19.4378 10.8227 19.4618 10.9105 19.4618 11C19.4618 11.0895 19.4378 11.1773 19.3923 11.2544C19.3468 11.3314 19.2814 11.3948 19.203 11.438L0.741 21.592C0.664873 21.6339 0.579148 21.6552 0.492273 21.6539C0.405398 21.6525 0.320372 21.6286 0.245577 21.5843C0.170781 21.5401 0.108797 21.4772 0.0657334 21.4017C0.0226703 21.3263 1.48755e-05 21.2409 0 21.154V12Z" fill="currentColor"/>
    </symbol>

    <symbol id="icon-ad" viewBox="0 0 20 20">
        <path d="M10 0C15.52 0 20 4.48 20 10C20 15.52 15.52 20 10 20C4.48 20 0 15.52 0 10C0 4.48 4.48 0 10 0ZM10 2C5.58 2 2 5.58 2 10C2 14.42 5.58 18 10 18C14.42 18 18 14.42 18 10C18 5.58 14.42 2 10 2ZM10 5C11.82 5 13.413 5.973 14.288 7.428L12.574 8.457C12.3043 8.00724 11.9213 7.63605 11.4634 7.38045C11.0055 7.12484 10.4885 6.99374 9.96412 7.00023C9.43971 7.00672 8.92617 7.15056 8.4747 7.41742C8.02323 7.68428 7.6496 8.06483 7.39107 8.52112C7.13254 8.97742 6.99815 9.49351 7.00128 10.0179C7.00442 10.5424 7.14498 11.0568 7.40895 11.51C7.67292 11.9632 8.05107 12.3392 8.5057 12.6007C8.96033 12.8621 9.47556 12.9998 10 13C10.5181 13.0003 11.0275 12.8664 11.4785 12.6112C11.9294 12.356 12.3065 11.9883 12.573 11.544L14.288 12.572C13.726 13.5106 12.8716 14.239 11.8559 14.6453C10.8402 15.0517 9.71922 15.1137 8.6649 14.8217C7.61058 14.5298 6.68114 13.9 6.01914 13.029C5.35713 12.1581 4.99912 11.094 5 10C5 7.24 7.24 5 10 5Z" fill="currentColor"/>
    </symbol>

    <symbol id="icon-arrow" viewBox="0 0 24 24">
        <!-- Paste the content of arrow.svg here -->
        <path d="..." />
    </symbol>
</svg>
